<svg width="22" height="22" viewBox="0 0 22 22" fill="none" xmlns="http://www.w3.org/2000/svg">
<path d="M10.5616 21.1233C16.3947 21.1233 21.1233 16.3947 21.1233 10.5616C21.1233 4.72861 16.3947 0 10.5616 0C4.72861 0 0 4.72861 0 10.5616C0 16.3947 4.72861 21.1233 10.5616 21.1233Z" fill="#039BE5"/>
<path d="M4.74923 10.5293L14.7401 7.08327C15.2038 6.93341 15.6088 7.18447 15.4586 7.81172L15.4594 7.81094L13.7583 14.9803C13.6322 15.4886 13.2946 15.6122 12.8223 15.3727L10.2317 13.6648L8.98219 14.7416C8.84403 14.8652 8.72746 14.9695 8.45977 14.9695L8.6437 12.6111L13.4449 8.73096C13.6538 8.56643 13.3982 8.47373 13.1228 8.63749L7.18953 11.9792L4.6318 11.2655C4.07655 11.1079 4.06447 10.7688 4.74923 10.5293Z" fill="white"/>
</svg>
