<svg width="21" height="22" viewBox="0 0 21 22" fill="none" xmlns="http://www.w3.org/2000/svg">
<path d="M20.0053 12.7361C20.6631 7.21624 19.6892 3.7314 17.9326 2.15521L17.9336 2.15429C15.0984 -0.537418 5.52352 -0.935817 2.13161 2.27518C0.608372 3.84588 0.0718406 6.1511 0.0130427 9.00492C-0.0457553 11.8596 -0.115578 17.2073 4.88317 18.6581H4.88776L4.88317 20.8735C4.88317 20.8735 4.84918 21.7711 5.42429 21.9515C6.0821 22.164 6.37976 21.7473 8.42575 19.3111C11.8471 19.6069 14.4746 18.9292 14.7732 18.8302C15.464 18.5995 19.3732 18.0838 20.0053 12.7361ZM8.76292 17.7523C8.76292 17.7523 6.5975 20.444 5.92408 21.1428C5.70358 21.3699 5.46196 21.3489 5.46564 20.8983C5.46564 20.6024 5.48217 17.2202 5.48217 17.2202C1.24413 16.0094 1.49402 11.4558 1.53995 9.0736C1.58589 6.69054 2.0232 4.73884 3.31308 3.42459C6.28881 0.643124 14.6831 1.26499 16.8219 3.26889C19.4366 5.5796 18.5059 12.1078 18.5114 12.3304C17.974 16.7943 14.8062 17.0773 14.2238 17.2705C13.9748 17.353 11.6642 17.9455 8.76292 17.7523Z" fill="#7360F2"/>
<path d="M9.96096 3.94755C9.60725 3.94755 9.60725 4.49707 9.96096 4.50165C12.7052 4.52271 14.9652 6.42953 14.99 9.92719C14.99 10.2963 15.5321 10.2917 15.5275 9.92261H15.5266C15.4972 6.15386 13.0295 3.96862 9.96096 3.94755Z" fill="#7360F2"/>
<path d="M13.5705 9.34758C13.5622 9.71209 14.1034 9.7295 14.108 9.3604C14.153 7.28232 12.8677 5.57058 10.4525 5.39016C10.0988 5.36451 10.062 5.91861 10.4148 5.94425C12.5094 6.1027 13.6128 7.52777 13.5705 9.34758Z" fill="#7360F2"/>
<path d="M12.9917 11.7113C12.5379 11.4494 12.0758 11.6124 11.8847 11.8698L11.485 12.3854C11.282 12.6473 10.9025 12.6125 10.9025 12.6125C8.13351 11.8826 7.39302 8.99396 7.39302 8.99396C7.39302 8.99396 7.35903 8.60289 7.6126 8.39316L8.11238 7.98102C8.36227 7.78319 8.52029 7.30695 8.26581 6.83894C7.58595 5.61444 7.12935 5.19223 6.89691 4.86801C6.65253 4.56303 6.28504 4.49434 5.90285 4.70041H5.89458C5.09989 5.16384 4.22986 6.03116 4.50823 6.92412C4.98321 7.86562 5.856 10.8669 8.63789 13.1346C9.94523 14.207 12.0142 15.3061 12.8925 15.5598L12.9008 15.5726C13.7662 15.8602 14.6078 14.9589 15.057 14.1429V14.1365C15.2564 13.7418 15.1902 13.3681 14.899 13.1236C14.3827 12.6217 13.6036 12.0676 12.9917 11.7113Z" fill="#7360F2"/>
<path d="M10.831 7.43419C11.7139 7.48548 12.142 7.94524 12.1879 8.88949C12.2045 9.25858 12.7419 9.23294 12.7254 8.86384C12.6666 7.6311 12.0216 6.9442 10.8604 6.88009C10.5067 6.85903 10.4736 7.41312 10.831 7.43419Z" fill="#7360F2"/>
</svg>
