<svg width="21" height="21" viewBox="0 0 21 21" fill="none" xmlns="http://www.w3.org/2000/svg">
<path fill-rule="evenodd" clip-rule="evenodd" d="M17.7785 3.01488C15.8222 1.07173 13.2205 0.0011396 10.4488 0C4.73744 0 0.0892123 4.61146 0.086915 10.2793C0.0861493 12.0912 0.563225 13.8598 1.47003 15.4188L0 20.7458L5.493 19.3163C7.00655 20.1354 8.71052 20.567 10.4446 20.5675H10.4489C16.1597 20.5675 20.8084 15.9557 20.8106 10.2876C20.8117 7.54062 19.7349 4.9579 17.7785 3.01488ZM10.4488 18.8314H10.4452C8.89992 18.8308 7.38433 18.4188 6.06184 17.6404L5.7475 17.4552L2.48786 18.3035L3.35791 15.1505L3.15306 14.8272C2.29093 13.4668 1.83568 11.8944 1.83645 10.28C1.83823 5.56898 5.7018 1.73625 10.4523 1.73625C12.7526 1.73701 14.9151 2.62691 16.541 4.24198C18.167 5.85705 19.062 8.00381 19.0612 10.2869C19.0591 14.9983 15.1958 18.8314 10.4488 18.8314ZM15.1729 12.432C14.914 12.3034 13.6411 11.6822 13.4037 11.5963C13.1665 11.5106 12.9937 11.4679 12.8213 11.725C12.6486 11.982 12.1525 12.5607 12.0014 12.732C11.8503 12.9035 11.6995 12.925 11.4405 12.7963C11.1815 12.6678 10.3474 12.3965 9.35836 11.5214C8.58876 10.8403 8.06919 9.99912 7.91807 9.74208C7.76722 9.48478 7.9168 9.35917 8.03166 9.21786C8.31193 8.87256 8.59259 8.51055 8.67887 8.33923C8.76527 8.16778 8.722 8.01773 8.65717 7.88921C8.59259 7.76069 8.0748 6.49637 7.85911 5.9819C7.64878 5.48123 7.43551 5.54885 7.27648 5.541C7.12563 5.53353 6.95295 5.53201 6.78026 5.53201C6.60771 5.53201 6.32718 5.59621 6.08979 5.8535C5.85253 6.11067 5.18376 6.73201 5.18376 7.99634C5.18376 9.26066 6.11149 10.4821 6.24091 10.6535C6.37032 10.825 8.06663 13.4194 10.6637 14.532C11.2815 14.7968 11.7636 14.9547 12.1398 15.0731C12.76 15.2686 13.3243 15.241 13.7705 15.1749C14.268 15.1011 15.3021 14.5535 15.5181 13.9535C15.7338 13.3535 15.7338 12.8393 15.669 12.732C15.6044 12.6249 15.4317 12.5607 15.1729 12.432Z" fill="#43D854"/>
</svg>
